<svg width="165" height="165" viewBox="0 0 302 165" fill="none" xmlns="http://www.w3.org/2000/svg">
<g clip-path="url(#clip0_101_36)">
<path d="M150.833 115.679C202.594 115.679 244.555 89.9844 244.555 58.288C244.555 26.5917 202.594 0.896729 150.833 0.896729C99.0723 0.896729 57.1116 26.5917 57.1116 58.288C57.1116 89.9844 99.0723 115.679 150.833 115.679Z" stroke="url(#paint0_linear_101_36)" stroke-width="3.33333"/>
<path fill-rule="evenodd" clip-rule="evenodd" d="M166.636 20.8519C167.409 21.128 167.791 21.5175 168.074 22.0264C168.287 23.1669 167.418 24.1712 166.576 25.1443L166.479 25.2561C166.309 25.4557 166.147 25.6564 165.985 25.857C165.745 26.1516 165.489 26.4344 165.206 26.7144C164.903 27.0197 164.609 27.3251 164.328 27.6382C163.524 28.5318 162.666 29.3999 161.787 30.2612C161.356 30.68 160.935 31.1018 160.522 31.5237C160.287 31.7635 160.05 32.0013 159.812 32.2391C159.732 32.318 159.653 32.3966 159.571 32.4779C159.504 32.5459 159.435 32.6138 159.366 32.6815L159.363 32.6847C159.274 32.7737 159.185 32.8632 159.095 32.9525L158.986 33.0615L158.873 33.1747C158.807 33.2403 158.741 33.3059 158.674 33.3734C158.491 33.5633 158.328 33.757 158.171 33.9557H157.852L157.742 34.2003C157.534 34.539 157.281 34.8013 156.962 35.1027C156.378 35.6723 155.844 36.2576 155.455 36.8938H155.136L155.128 36.9081L155.035 37.1199C154.748 37.5928 154.352 38.0201 153.948 38.4583L153.856 38.5585C153.739 38.6848 153.623 38.812 153.507 38.9383C153.323 39.1405 153.135 39.3426 152.949 39.5448L152.948 39.546C152.279 40.2732 151.626 41.0043 150.983 41.7481L150.652 42.1269C150.397 42.4165 150.149 42.7072 149.909 43.0018L149.666 43.2964C149.599 43.382 149.53 43.4677 149.461 43.5558C149.218 43.7495 149.218 43.7495 148.814 43.8366C148.341 43.849 148.131 43.7337 147.828 43.5677C147.765 43.5324 147.697 43.495 147.62 43.456C147.15 43.312 146.669 43.1868 146.182 43.0644C146.417 42.5918 146.736 42.169 147.102 41.7334L147.15 41.6739C147.191 41.6246 147.232 41.5751 147.273 41.5249C147.44 41.323 147.609 41.121 147.777 40.9191V40.918L147.779 40.9175L147.78 40.9142C148.354 40.2203 148.909 39.5245 149.444 38.8198C149.644 38.5521 149.848 38.2853 150.051 38.0172C150.148 37.8903 150.246 37.7633 150.343 37.6356C151.277 36.422 152.181 35.1987 153.059 33.9655L153.192 33.7786C153.699 33.0622 154.188 32.3399 154.658 31.6157L154.796 31.4038C154.963 31.1461 155.13 30.8875 155.297 30.6272L155.456 30.3795C155.765 29.9069 156.089 29.439 156.429 28.9702C156.622 28.7041 156.807 28.4344 156.99 28.1654L157.016 28.1266C158.051 26.639 159.317 25.2296 160.643 23.8399C160.79 23.6833 160.93 23.5257 161.061 23.3633C161.231 23.16 161.46 23.0248 161.721 22.8722C161.761 22.8485 161.802 22.8244 161.844 22.7996C162.027 22.6713 162.212 22.5431 162.393 22.414C164.101 21.2138 164.682 20.8049 165.357 20.7357C165.706 20.6999 166.078 20.7549 166.644 20.8382L166.636 20.8519ZM102.878 44.737C102.697 44.4914 102.594 44.3508 102.066 44.243L102.105 44.2513C102.078 46.1304 102.199 47.8724 103.228 49.6635C103.326 49.8298 103.422 49.9972 103.514 50.1655L103.561 50.255C103.648 50.4188 103.737 50.582 104.342 51.6923H104.662C104.662 51.7589 104.662 51.8059 104.672 51.8521C104.695 51.9617 104.773 52.067 105.036 52.4224L105.111 52.5214L105.191 52.6279C105.289 52.7629 105.387 52.8981 105.488 53.0321C105.645 53.2067 105.717 53.2873 105.826 53.3397C105.919 53.3845 106.038 53.4089 106.259 53.454C106.524 53.3804 106.652 53.3453 106.776 53.3068C106.89 53.2716 107.002 53.2335 107.217 53.1605L107.218 52.9646C107.721 52.8961 108.188 52.8031 108.656 52.6709L108.816 52.4753C109.54 52.2168 110.302 51.9742 111.101 51.8127C111.351 51.7735 111.6 51.733 111.849 51.6923L112.009 51.4966C116.276 50.5814 120.512 50.877 124.795 51.4966V51.6923C125.69 51.7167 126.481 51.7931 127.32 51.9742C128.247 52.1758 129.173 52.306 130.133 52.4253L130.555 52.4758V52.6716L130.836 52.6861L131.215 52.7082C131.648 52.7327 132.019 52.7744 132.435 52.856C132.716 52.9157 132.997 52.9735 133.282 53.0244L133.506 53.0628L133.637 53.085C133.878 53.1268 134.121 53.1686 134.362 53.2103C134.805 53.2848 135.235 53.3647 135.671 53.455L135.831 53.6507L136.111 53.6875C136.782 53.802 137.181 54.0535 137.539 54.4097L137.665 54.5415L137.749 54.6299H138.068V54.8257C138.425 55.3444 138.582 55.7848 138.597 56.3426L138.598 56.5677L138.599 56.6358C138.603 56.9615 138.607 57.2735 138.406 57.5856C138.345 57.6443 138.286 57.701 138.227 57.7579C137.927 58.1366 137.633 58.5026 137.161 58.8149C135.835 59.5283 134.396 59.7562 132.67 59.7064L132.231 59.6896C131.144 59.6534 130.054 59.6017 128.97 59.5183C128.202 59.4557 127.433 59.407 126.653 59.3813L126.466 59.3756C125.866 59.3574 125.269 59.3394 124.671 59.2658L124.289 59.2058C123.659 59.1226 123.562 59.1216 123.05 59.3223C122.974 59.4193 122.936 59.4667 122.917 59.5167C122.898 59.5647 122.895 59.6151 122.891 59.7137C123.141 59.9037 123.38 60.0103 123.73 60.1297C124.641 60.3911 125.518 60.6651 126.399 60.9499C127.613 61.3433 128.82 61.7289 130.043 62.1047L130.162 62.1398L130.287 62.1766L130.565 62.2584C131.492 62.5578 132.234 62.6976 133.282 62.6998L133.752 62.6932C139.426 62.6442 145.228 61.8515 150.214 60.0898C150.747 59.8979 151.277 59.712 151.828 59.5398L151.833 59.5383L151.838 59.5367L151.841 59.5359L151.845 59.5349C152.036 59.4774 152.041 59.4758 152.241 59.4165V59.2207C152.56 59.2207 152.56 59.2207 152.872 59.1209L153.22 58.9887C153.572 58.8586 153.572 58.8586 153.841 58.7323V58.5366C154.001 58.5366 154.081 58.5366 154.15 58.5196C154.218 58.5029 154.275 58.4695 154.387 58.4035L154.639 58.243C155.345 57.9415 155.978 57.6401 156.59 57.2643C156.685 57.2046 156.777 57.1463 156.871 57.0882C157.048 56.9778 157.233 56.868 157.419 56.7573C158.123 56.3374 158.849 55.9048 159.3 55.3852L159.365 55.3001L159.432 55.21H159.751L160.081 54.8068L160.232 54.6228H160.551L160.711 54.3292C161.176 53.9818 161.564 53.6363 161.925 53.2429C161.982 53.179 162.037 53.1172 162.093 53.0557L162.128 53.0167C163.023 52.0185 163.887 51.03 164.19 49.8947L164.227 49.7284H164.546C164.867 48.8769 165.092 48.0195 165.287 47.1544L165.375 46.761C165.558 45.9486 165.715 45.1617 165.665 44.3435H165.344C164.952 44.6088 164.619 44.8506 164.337 45.1637L164.334 45.1666C164.281 45.2436 164.279 45.2445 164.227 45.3222H163.906L163.746 45.6158C163.427 45.6158 163.427 45.6158 163.166 45.7057C162.45 45.9915 161.723 46.2528 160.977 46.5043C160.91 46.5262 160.847 46.5476 160.782 46.5689L160.781 46.5693L160.78 46.5697L160.706 46.5942V46.7899C160.191 46.7605 159.86 46.8007 159.368 46.9063C158.817 47.0424 158.256 47.1638 157.69 47.2793C157.577 47.3022 157.467 47.3244 157.357 47.3465C157.145 47.3893 156.93 47.4326 156.717 47.4758C156.476 47.5244 156.474 47.5246 156.241 47.5717L156.238 47.5724V47.7682C155.7 47.7604 155.193 47.7607 154.661 47.8152C153.557 47.9757 152.429 48.1205 151.305 48.2575C151.027 48.2913 151.025 48.2915 150.757 48.3242L150.754 48.3245L150.751 48.3249C150.388 48.3689 150.025 48.4132 149.662 48.4575L149.225 48.5109L148.894 48.551V48.7468C147.935 48.7302 146.998 48.7262 146.049 48.7835C141.91 49.1054 137.818 49.1745 133.647 49.1691L133.207 49.1685C132.217 49.1676 131.227 49.1661 130.235 49.1626L129.838 49.1613C129.461 49.1602 129.085 49.159 128.708 49.1572L128.361 49.1553C127.756 49.1523 127.176 49.1383 126.572 49.0903C125.884 49.0247 125.884 49.0247 124.238 48.9268C124.011 48.9136 123.784 48.9003 123.557 48.8869C122.055 48.7946 120.586 48.7307 119.082 48.7411L118.686 48.746V48.5502C117.151 48.3966 115.633 48.2136 114.115 47.9934L113.936 47.9662C113.228 47.8584 112.536 47.7529 111.797 47.7526L111.342 47.7668V47.5711C110.96 47.4908 110.578 47.4115 110.196 47.3323L109.724 47.2346L109.616 47.2119C108.876 47.0573 108.154 46.9065 107.391 46.8148L107.02 46.7876V46.5919C105.518 46.2494 104.064 45.6836 103.025 44.9281C102.967 44.858 102.921 44.7947 102.878 44.737ZM118.048 51.7792L118.56 51.7756C120.318 51.7737 121.948 51.9655 123.642 52.2503L123.822 52.28L124.054 52.3182C124.257 52.3517 124.459 52.3855 124.661 52.4194L124.667 52.4203L125.041 52.4827V52.6785L125.317 52.6876C126.504 52.7421 127.602 52.9195 128.737 53.125L129.293 53.2228C129.741 53.3016 130.188 53.3813 130.636 53.4616V53.6573L131.173 53.6397C132.013 53.6399 132.755 53.7819 133.556 53.9355L133.57 53.9382L134.003 54.018C134.603 54.1315 135.073 54.2245 135.598 54.4398V54.6356L135.908 54.715C136.052 54.766 136.133 54.7946 136.192 54.8353C136.268 54.8877 136.308 54.9599 136.398 55.1251H136.717C137.205 55.8455 137.462 56.5736 137.064 57.337C136.829 57.6678 136.565 57.9575 136.238 58.258H135.918V58.4536C134.418 59.0908 132.208 58.9179 130.351 58.7725C130.032 58.7475 129.722 58.7233 129.429 58.7042C128.983 58.677 128.536 58.6507 128.09 58.6247L127.757 58.6054C126.747 58.5471 125.744 58.4958 124.721 58.4596L124.283 58.4389C123.306 58.4089 122.669 58.5293 121.838 58.8451L121.836 58.8458L121.834 58.8463L121.83 58.8478L121.827 58.8492L121.596 58.9355L121.297 59.0467C120.679 59.3266 120.517 59.5683 120.399 60.0195C120.736 60.1233 121.075 60.2261 121.414 60.3287C122.82 60.7545 124.211 61.2028 125.585 61.65C125.879 61.7455 126.174 61.8404 126.469 61.9352L126.771 62.0327L126.976 62.0986C127.97 62.419 128.965 62.7395 129.952 63.0701C130.967 63.4038 131.998 63.7249 133.02 64.0341C133.641 64.222 134.23 64.4246 134.811 64.6478C136.241 65.1841 137.815 65.559 139.509 65.3142C140.305 65.1479 141.029 64.9042 141.747 64.6428C142.1 64.5245 142.1 64.5245 142.42 64.5245V64.3287L142.73 64.2389C143.207 64.0979 143.445 64.0277 143.673 63.9476C143.9 63.8681 144.118 63.7787 144.552 63.6007C145.013 63.3884 145.49 63.2347 146.009 63.0811C146.786 62.8501 147.528 62.5966 148.263 62.3225L148.414 62.2665L148.569 62.209C149.025 62.0397 149.479 61.8684 149.931 61.6953L150.36 61.5338L150.552 61.4598L150.728 61.3928C151.038 61.2953 151.038 61.2953 151.519 61.2953V61.0996C151.628 61.0629 151.74 61.0262 151.853 60.988L152.038 60.9259L152.04 60.9255C152.128 60.8962 152.217 60.8666 152.308 60.8363L152.41 60.8023C152.523 60.7647 152.636 60.727 152.752 60.6885C153.866 60.3146 154.973 59.935 156.077 59.5435C156.266 59.4759 156.266 59.4759 156.462 59.4074C157.76 58.9455 159.052 58.4718 160.33 57.9981C163.063 56.9901 163.063 56.9901 164.309 56.6965V56.5007C164.423 56.4663 164.537 56.4318 164.656 56.396L165.139 56.2492L165.668 56.0887C166.166 55.9317 166.652 55.7631 167.142 55.5924L167.314 55.5328C168.147 55.2578 168.655 55.1158 169.583 55.2274C170.462 55.5024 171.181 55.9184 171.502 56.4997C171.588 57.0654 171.445 57.3326 170.862 57.772C170.185 58.2388 169.955 58.3977 169.665 58.4734C169.518 58.5124 169.354 58.5293 169.103 58.555V58.7507C168.875 58.8711 168.875 58.8711 168.554 59.0061L168.397 59.073L168.317 59.1076L168.201 59.1569C168.015 59.2345 168.015 59.2345 167.825 59.3134C166.945 59.6805 166.505 59.8639 166.085 60.0625C165.666 60.2604 165.266 60.4735 164.468 60.899C164.129 61.0536 163.789 61.2043 163.44 61.3511C162.677 61.6799 161.928 62.0157 161.187 62.369C160.389 62.7497 159.571 63.1118 158.757 63.4651C157.991 63.7974 157.255 64.146 156.515 64.4968L156.296 64.6003C156.06 64.7089 155.946 64.761 155.828 64.8089C155.72 64.8528 155.609 64.8932 155.395 64.9707L155.393 64.971L155.392 64.9713C155.2 65.03 155.106 65.058 155.043 65.1018C154.983 65.142 154.95 65.1955 154.882 65.2982L154.404 65.3961C154.241 65.4919 154.08 65.5899 153.923 65.6897C153.711 65.7895 153.494 65.8873 153.276 65.9833C153.151 66.038 153.027 66.0929 152.9 66.1487L152.766 66.2063C152.681 66.2436 152.595 66.2812 152.506 66.3199C151.74 66.6547 150.983 66.9923 150.253 67.3574C149.792 67.5659 149.329 67.7704 148.864 67.9749L148.771 68.0158C148.675 68.0586 148.577 68.1017 148.477 68.1462C147.686 68.4946 146.891 68.8411 146.096 69.1836C145.88 69.2763 145.669 69.3725 145.461 69.4713C143.87 70.1755 141.61 69.9772 139.685 69.8082C139.425 69.7853 139.17 69.763 138.924 69.7434C137.011 69.593 135.097 69.487 133.17 69.3802L132.819 69.3608C131.435 69.283 130.07 69.1925 128.696 69.0662C127.976 69.0032 127.254 68.9664 126.522 68.9321C123.773 68.7931 121.024 68.6444 118.291 68.4241C117.356 68.3489 116.421 68.3048 115.478 68.2676C114.93 68.2406 114.393 68.1972 113.848 68.1491C112.518 68.0337 111.179 67.9759 109.836 67.9182L109.317 67.8953L108.82 67.8747C108.424 67.8529 108.045 67.8147 107.655 67.77C107.362 67.7442 107.219 67.7316 107.09 67.7523C106.965 67.7721 106.854 67.8226 106.637 67.9217L106.539 67.9825C106.443 68.0417 106.348 68.1012 106.25 68.1625L105.981 68.325L105.858 68.3993C105.619 68.552 105.38 68.7046 105.144 68.8593C104.983 68.9506 104.911 68.9918 104.825 69.0104C104.755 69.0257 104.676 69.0257 104.532 69.0257V69.2214C104.291 69.3515 104.038 69.4749 103.782 69.5943C103.193 69.8761 102.649 70.1599 102.136 70.4937C101.928 70.6278 101.717 70.76 101.497 70.8851H101.177L101.017 71.1788C100.739 71.354 100.739 71.354 100.397 71.5331L100.058 71.7142C99.7371 71.8629 99.7371 71.8629 99.2577 71.9608V72.1565C99.149 72.2204 99.089 72.2557 99.0275 72.2891C98.9537 72.3291 98.8768 72.3669 98.7078 72.4501C98.4894 72.5562 98.3811 72.6089 98.2895 72.6707C98.1995 72.7315 98.1255 72.8012 97.9791 72.9395C97.4053 72.9102 97.2151 72.8641 96.8108 72.6027C96.5406 72.3522 96.5406 72.3522 96.5406 72.1565H96.2209C96.0563 71.995 95.8982 71.8316 95.7415 71.6672C95.4265 71.4009 95.0991 71.1404 94.771 70.8796C94.6747 70.803 94.5783 70.7262 94.4821 70.6493L94.2264 70.4438C94.1113 70.3522 94.1103 70.3514 93.9917 70.258C93.9092 70.1799 93.8669 70.1402 93.8457 70.0968C93.8236 70.052 93.8236 70.003 93.8236 69.9036H93.504L93.3441 69.5121H93.0244C92.8152 69.3565 92.8152 69.3565 92.5785 69.1402L92.453 69.0265L92.3149 68.9014C92.2228 68.8165 92.1312 68.7321 92.0352 68.644L91.7538 68.3886L91.75 68.3851C91.6548 68.2988 91.5597 68.2123 91.4646 68.1262L91.3664 68.0369C91.308 67.9837 91.2491 67.9302 91.1897 67.8757C90.3554 67.1143 89.4796 66.3783 88.5686 65.654L88.4997 65.5986C88.4429 65.5529 88.3854 65.5066 88.3272 65.4593L88.2203 65.3737L88.1099 65.2861C88.0178 65.2047 87.9692 65.1618 87.9263 65.1168C87.8782 65.0666 87.8372 65.0139 87.7502 64.9025C87.6182 64.7047 87.6182 64.7047 87.2772 64.6245C87.1127 64.463 86.9543 64.2996 86.7978 64.1351C86.6408 64.003 86.4813 63.8728 86.3184 63.7436C86.5373 63.4275 86.7562 63.2709 87.2181 63.0781L87.3689 63.0144L87.5697 62.9294L87.717 62.8686C87.7898 62.8387 87.863 62.8086 87.9373 62.7776L87.9389 62.777C88.1749 62.6774 88.4108 62.5778 88.6485 62.4792L88.763 62.431C88.8417 62.398 88.9212 62.3646 89.0017 62.3304C90.0341 61.9409 90.0343 61.9409 90.7918 61.3958L90.7942 61.3949C90.9005 61.3559 91.0068 61.3169 91.1162 61.2773C91.7728 61.0355 92.3707 60.7441 92.966 60.4539C93.0791 60.3988 93.1924 60.3435 93.3057 60.2888C94.3975 59.7692 94.3975 59.7692 95.0958 59.638V59.4423C95.3244 59.3219 95.3244 59.3219 95.6456 59.1868C95.8206 59.1126 95.8217 59.1121 95.9986 59.0362C96.183 58.959 96.1846 58.9583 96.3741 58.8796C96.494 58.8287 96.6141 58.778 96.7341 58.7273C96.8538 58.6767 96.9738 58.626 97.0936 58.5751C97.2708 58.5006 97.2727 58.4999 97.4477 58.4258L97.4496 58.425L97.4532 58.4234C97.9232 58.2199 98.377 58.0055 98.8309 57.7873C98.9599 57.7345 99.0251 57.7077 99.0969 57.6943C99.1699 57.6807 99.2498 57.6807 99.4111 57.6807V57.4849C99.7244 57.3479 100.046 57.2187 100.37 57.0934C100.709 56.9747 100.875 56.9165 101.017 56.8409C101.153 56.7684 101.266 56.6798 101.489 56.5062C101.753 56.4088 102.018 56.3115 102.283 56.2142L102.288 56.2126C102.736 56.0123 103.177 55.8051 103.618 55.5976L103.95 55.4413L104.286 55.2847L104.354 55.2526C104.432 55.2159 104.51 55.1789 104.589 55.1409C104.848 55.0381 104.848 55.0381 105.168 55.0381V54.8424L105.628 54.769C105.918 54.7204 106.044 54.6994 106.123 54.6503C106.183 54.6127 106.216 54.5588 106.274 54.4636C106.489 54.2038 106.738 54.1044 107.127 53.9488L107.156 53.9371L107.535 53.7824C107.885 53.6679 107.885 53.6679 108.364 53.6679V53.4723C109.336 53.0397 110.346 52.6892 111.561 52.6892V52.4936C113.671 51.9709 115.732 51.7908 117.986 51.7899L118.048 51.7792ZM191.567 68.025L192.003 68.0777C192.579 68.1491 193.131 68.2422 193.682 68.3577C197.39 69.1211 201.146 69.7963 204.886 70.4619C205.612 70.594 206.336 70.733 207.059 70.8728C207.844 71.0236 208.63 71.1665 209.424 71.3074C210.358 71.4738 211.278 71.6519 212.205 71.8428C213.63 72.1345 215.066 72.3879 216.52 72.6297C216.985 72.7207 216.985 72.7207 217.464 72.9163C217.216 73.6493 216.907 74.3551 216.512 75.0696C215.873 76.2105 215.33 77.3772 214.787 78.5435C214.658 78.8178 214.53 79.0921 214.401 79.3661L214.299 79.5852C213.892 80.4563 213.495 81.3273 213.12 82.2082C212.969 82.5488 212.798 82.8834 212.606 83.2162C212.509 83.3885 212.43 83.5656 212.354 83.7418C212.259 83.8791 212.217 83.9393 212.149 83.9851C212.097 84.0209 212.028 84.0479 211.905 84.0961C211.755 84.091 211.669 84.088 211.587 84.0735C211.471 84.0529 211.366 84.0088 211.112 83.9023C210.578 83.689 210.102 83.5705 209.497 83.4472C208.746 83.2896 208.024 83.1213 207.308 82.9177C206.819 82.7844 206.321 82.6643 205.822 82.5441L205.735 82.5233C204.868 82.3129 204.009 82.0887 203.162 81.848C202.613 81.6963 202.051 81.5623 201.484 81.4301C201.354 81.3962 201.275 81.3753 201.198 81.3512C201.078 81.3131 200.964 81.2668 200.671 81.1472C199.999 81.0931 199.678 81.2131 199.134 81.4179L199.072 81.4408C198.769 81.5311 198.461 81.619 198.154 81.7041C197.283 81.9479 196.411 82.1945 195.549 82.444C195.432 82.4774 195.316 82.5107 195.197 82.5448L195.007 82.5996L194.863 82.6409L194.553 82.7306C194.336 82.7943 194.122 82.8617 193.912 82.9312C193.808 82.9602 193.743 82.978 193.676 82.9889C193.57 83.0062 193.456 83.0062 193.162 83.0062V83.2019L192.832 83.2814C191.735 83.5535 190.675 83.8578 189.621 84.1857C188.887 84.4128 188.148 84.6271 187.399 84.8327C185.784 85.2779 184.203 85.7467 182.62 86.2322C181.725 86.5081 180.814 86.7694 179.903 87.0298C179.257 87.2148 178.617 87.4046 177.985 87.6033C177.162 87.8583 176.317 88.0867 175.479 88.3132L175.252 88.3745C174.29 88.6339 173.35 88.9158 172.423 89.2152C171.881 89.3865 171.398 89.5098 170.793 89.5607V89.7564L170.497 89.8326L170.344 89.873C169.671 90.0487 169.005 90.2361 168.346 90.4236C168.207 90.4621 168.066 90.5007 167.923 90.5392L167.529 90.6504C165.988 90.9742 164.429 90.6522 162.975 90.3438C162.673 90.2935 162.368 90.2442 162.065 90.1967C161.496 90.1043 160.961 89.9922 160.419 89.8541C159.744 89.6828 159.073 89.5597 158.373 89.4472C157.769 89.3484 157.17 89.2417 156.568 89.133L156.219 89.07L155.998 89.03C155.596 88.9571 155.193 88.8843 154.79 88.8106L154.529 88.7633C154.263 88.7151 153.996 88.6668 153.73 88.6188L153.605 88.5964C153.534 88.5834 153.462 88.5702 153.389 88.5567C152.61 88.4168 151.826 88.2837 151.038 88.1584C150.861 88.1263 150.769 88.1098 150.678 88.0907C150.583 88.0703 150.489 88.0471 150.296 87.9993L150.294 87.999C149.788 87.8766 149.278 87.7895 148.754 87.7014L147.972 87.5644L147.872 87.5469L147.871 87.5465C147.619 87.5024 147.367 87.4585 147.115 87.4137C146.966 87.3875 146.816 87.3614 146.663 87.3344C145.792 87.1817 144.921 87.0319 144.042 86.893C143.562 86.8078 143.09 86.7104 142.616 86.6128L142.584 86.6062C142.079 86.5031 141.571 86.405 141.066 86.3074L140.682 86.2334L140.681 86.233C139.924 86.0873 139.167 85.9416 138.413 85.7861C137.841 85.6686 137.264 85.561 136.687 85.4563C134.981 85.1343 134.427 85.0298 134.066 84.8081C133.892 84.7015 133.762 84.5678 133.57 84.3699C133.281 83.9275 133.327 83.445 133.57 82.9997C134.021 82.5857 134.459 82.2706 135.168 82.021C135.346 82.0132 135.439 82.0092 135.532 82.0105C135.633 82.012 135.734 82.0199 135.945 82.0363L136.413 82.0717C137.369 82.1596 138.315 82.2547 139.274 82.3575L139.888 82.4219C141.518 82.5961 141.518 82.5961 142.301 82.7184C142.733 82.7864 143.12 82.8319 143.562 82.8526C144.128 82.8791 144.654 82.9572 145.209 83.0444C145.798 83.1319 146.393 83.1973 146.985 83.2622L147.158 83.2812C147.31 83.2981 147.464 83.3148 147.62 83.3322C148.578 83.437 149.539 83.5359 150.496 83.6317C151.929 83.7747 153.358 83.9322 154.764 84.1191C156.411 84.3374 158.073 84.5097 159.751 84.675C161.229 84.8228 162.692 84.996 164.162 85.1908C165.321 85.3445 166.432 85.4609 167.63 85.4649L168.195 85.4691C169.039 85.4341 169.682 85.2811 170.386 84.9934C170.752 84.8426 170.881 84.7894 171.023 84.7707C171.099 84.7605 171.18 84.7605 171.304 84.7605L171.464 84.4669H171.784L171.944 84.1733H172.263L172.394 84C172.586 83.7789 172.798 83.6047 173.063 83.4148L173.176 83.3319L173.312 83.2328C173.428 83.1647 173.485 83.1307 173.553 83.1137C173.622 83.0968 173.703 83.0967 173.862 83.0967L173.985 82.9235C174.201 82.6837 174.437 82.5369 174.76 82.3509C175.381 81.982 175.914 81.5875 176.438 81.1667C176.733 80.9446 177.029 80.742 177.376 80.5501H177.695L177.718 80.5183C177.753 80.4712 177.79 80.4238 177.825 80.376C178.016 80.1587 178.216 79.9991 178.484 79.8161L178.781 79.6126C179.045 79.4355 179.31 79.2583 179.575 79.0812L179.809 78.9255L180.039 78.7728L180.266 78.6221C180.71 78.3285 181.126 78.0261 181.53 77.7119C181.718 77.5868 181.801 77.531 181.89 77.478C181.961 77.4352 182.035 77.3943 182.17 77.3204H182.489L182.558 77.2289L182.62 77.1492C182.811 76.926 183.034 76.7362 183.289 76.5375C183.245 76.448 183.221 76.3996 183.186 76.3543C183.145 76.3012 183.09 76.2523 182.97 76.1461C182.541 76.0199 182.541 76.0198 182.041 75.9385H182.04C181.379 75.8168 181.167 75.7777 180.963 75.7269C180.867 75.7029 180.773 75.6762 180.634 75.6371C180.164 75.541 180.01 75.5722 179.563 75.6936L179.459 75.7214L179.454 75.7231C179.351 75.7506 179.249 75.7782 179.145 75.8062C178.445 76.0117 177.752 76.2251 177.067 76.4404C176.286 76.6821 175.497 76.8916 174.685 77.0912C174.078 77.2517 173.495 77.4357 172.911 77.6207C170.871 78.2545 170.159 78.4754 169.452 78.4712C169.072 78.4689 168.696 78.4022 168.116 78.2999C166.958 77.9926 166.199 77.466 165.575 76.8123C165.227 76.1017 165.234 75.5008 165.775 74.8354C166.21 74.3558 166.353 74.1976 166.573 74.1104C166.68 74.0676 166.806 74.0419 166.993 74.0035C167.156 73.9073 167.314 73.8087 167.472 73.7099C167.699 73.6071 167.93 73.5073 168.162 73.4104C168.828 73.1285 169.49 72.8427 170.143 72.554L170.426 72.4307C170.929 72.2105 171.432 71.9893 171.931 71.7662L172.004 71.7341L172.007 71.7324C172.085 71.6983 172.162 71.664 172.24 71.6292C172.436 71.5418 172.634 71.4539 172.83 71.3659C173.293 71.1612 173.438 71.0968 173.597 71.0766C173.671 71.0674 173.748 71.0674 173.86 71.0674V70.8716C173.987 70.8088 174.057 70.774 174.13 70.7412C174.221 70.7004 174.316 70.6627 174.529 70.5783C174.653 70.5278 174.776 70.4772 174.905 70.4254C175.295 70.2864 175.677 70.1846 176.099 70.0887V69.8929C176.484 69.7256 176.866 69.572 177.266 69.4222L177.44 69.3566L177.62 69.289C178.964 68.7889 180.337 68.4073 181.855 68.1342L182.278 68.0548C185.283 67.5194 188.575 67.6241 191.596 68.0364L191.567 68.025ZM147.934 38.8623L147.935 38.8601L147.969 38.8571C147.963 38.8581 147.956 38.8591 147.95 38.8601L147.934 38.8623ZM146.603 38.7461C147.295 38.8365 147.708 38.8904 147.934 38.8623C147.68 39.4355 147.194 40.1916 146.496 40.6217C145.34 40.6757 144.177 40.5999 143.032 40.5255C142.892 40.5164 142.752 40.5072 142.613 40.4984C139.736 40.3212 136.859 40.2772 133.966 40.284C133.592 40.2849 133.217 40.2852 132.843 40.2854C126.418 40.291 120.025 40.6211 113.823 41.7045C113.692 41.7273 113.561 41.7501 113.426 41.7736C112.491 41.9429 111.604 42.1563 110.693 42.3834L110.578 42.4104C110.446 42.4415 110.314 42.4726 110.179 42.5047C108.453 42.9236 106.568 43.4932 105.641 44.5306C105.568 44.5972 105.495 44.6637 105.42 44.7322C105.211 44.7572 105.109 44.7694 105.007 44.7689C104.909 44.7683 104.812 44.7561 104.621 44.7322C104.053 44.2106 103.914 43.5969 104.092 42.9803C104.768 41.9918 105.978 41.4829 107.496 41.0131L107.924 40.8732C111.345 39.7771 115.212 39.2192 119 38.8571C119.119 38.8455 119.237 38.834 119.36 38.8221C136.665 37.4493 143.846 38.3863 146.603 38.7461ZM145.378 75.6592C146.228 75.8508 146.994 76.1546 147.757 76.4574L147.758 76.458C147.918 76.5216 148.079 76.5853 148.24 76.6477L148.559 76.7456V76.9414L148.836 76.973C149.252 77.0491 149.531 77.162 149.887 77.3146C150.322 77.4976 150.753 77.6728 151.216 77.8284C151.602 77.9644 151.939 78.0965 152.293 78.257C152.69 78.4342 153.09 78.5859 153.523 78.7278C154.256 78.9706 154.95 79.2436 155.648 79.5206C156.386 79.8139 157.135 80.1013 157.88 80.3873C158.182 80.503 158.482 80.6185 158.781 80.7342C159.1 80.8555 159.418 80.9769 159.734 81.0992L159.782 81.1179C159.87 81.1515 159.958 81.1853 160.049 81.2196C160.16 81.2623 160.271 81.3051 160.383 81.3478L160.387 81.3498L160.676 81.4604C161.269 81.6874 161.863 81.9105 162.465 82.1298L162.527 82.1527L162.531 82.1539C162.642 82.1948 162.754 82.2358 162.868 82.2776C163.127 82.3729 163.388 82.4674 163.65 82.5614L163.817 82.6231L164.003 82.6915L164.048 82.7083L164.209 82.7663L164.319 82.806L164.543 82.9118V83.1075L164.873 83.1749C165.347 83.305 165.729 83.4694 166.144 83.6593C166.606 83.855 167.095 84.0136 167.59 84.1731C167.725 84.221 167.801 84.2477 167.872 84.2795C167.959 84.3197 168.039 84.3679 168.217 84.4774V84.771C167.153 84.7164 166.123 84.6252 165.069 84.4961C163.66 84.3268 162.256 84.1721 160.834 84.0273C160.181 83.9595 159.538 83.8873 158.899 83.7875C158.391 83.7082 157.898 83.6505 157.379 83.6035C157.05 83.5693 156.719 83.5347 156.391 83.4997L155.948 83.4566C154.581 83.2824 153.567 82.7999 152.561 82.2234V82.0277L152.475 82.0025C152.412 81.9843 152.349 81.9659 152.286 81.947C151.913 81.8287 151.565 81.6985 151.214 81.5566L150.854 81.4137C150.68 81.3339 150.587 81.2916 150.499 81.2456C150.403 81.1941 150.312 81.1377 150.119 81.0183C149.581 80.6924 148.998 80.4212 148.392 80.1433L148.162 80.036L148.032 79.975C147.477 79.7176 146.92 79.4622 146.353 79.2106L146.081 79.0883C145.923 79.0165 145.763 78.9457 145.602 78.8747C145.522 78.8393 145.442 78.8038 145.362 78.7683L145.223 78.6966L145.038 78.6009V78.4052L144.749 78.3196C144.607 78.2751 144.522 78.2486 144.44 78.2198C144.32 78.1777 144.204 78.1304 143.919 78.0142V77.8185L143.44 77.7205C143.005 77.3506 142.81 77.149 142.77 76.693C143.187 75.9413 144.08 75.4793 145.375 75.6555L145.378 75.6592ZM141.628 77.7495C141.124 77.5675 140.619 77.3904 140.103 77.225L140.122 77.2318C138.892 76.8775 138.097 76.8667 137.006 77.3649C136.226 77.8738 135.769 78.4268 135.727 79.1265C136.055 79.6031 136.635 79.8801 137.373 80.1249C137.466 80.1498 137.554 80.1741 137.643 80.1982V80.394L137.963 80.4918C138.73 80.9753 139.462 81.3482 140.456 81.6369C140.643 81.6804 140.825 81.7228 141.006 81.7651C141.549 81.8973 142.051 81.9734 142.636 82.0098C143.007 82.031 143.37 82.0558 143.736 82.0977C144.337 82.176 144.938 82.2483 145.542 82.313L146.13 82.3736C146.538 82.4154 146.944 82.4572 147.351 82.4989L147.568 82.5209L147.975 82.5619L148.577 82.6244C149.121 82.6791 149.624 82.7427 150.149 82.8475C150.335 82.8867 150.457 82.9127 150.583 82.929C150.83 82.9608 151.09 82.9553 151.86 82.9391V82.8412C151.601 82.6611 151.333 82.5261 151.012 82.3861C150.598 82.2158 150.186 82.0425 149.782 81.8625C148.982 81.3751 148.175 80.9846 147.177 80.6685C147.114 80.6497 147.051 80.6314 146.988 80.6131L146.901 80.5879V80.3921C146.373 80.0955 145.794 79.8529 145.144 79.6699L144.824 79.6087V79.4129C144.434 79.2392 144.239 79.1524 144.051 79.0605C143.862 78.9689 143.68 78.8723 143.317 78.6794L143.207 78.6209C142.785 78.3957 142.377 78.178 141.882 78.0095L141.628 77.9453V77.7495ZM154.168 39.7411C155.247 39.7789 156.151 39.9301 157.14 40.1698C157.271 40.1995 157.398 40.2293 157.533 40.2601C158.284 40.4342 159.024 40.6212 159.754 40.8179V41.0136L160.101 41.0415C160.629 41.1231 160.961 41.2549 161.402 41.4477L161.564 41.5168C161.652 41.5542 161.74 41.5919 161.831 41.6307C161.87 41.6514 161.911 41.6722 161.951 41.693C162.017 41.7271 162.084 41.7615 162.152 41.7961V41.9918H162.471C162.857 42.2494 163.011 42.3512 163.071 42.4704C163.111 42.5483 163.111 42.6336 163.111 42.7748H163.43C163.625 43.454 163.604 43.9297 162.96 44.5267L162.631 44.7282H162.152C162.105 44.668 162.058 44.6076 162.01 44.5466C161.98 44.5096 161.951 44.4723 161.922 44.4347C161.282 43.7486 160.26 43.2994 159.109 42.9666L158.581 42.8051C157.319 42.4312 156.071 42.1396 154.73 41.8959C154.1 41.7805 153.493 41.6463 152.876 41.4976C152.961 41.0513 153.151 40.7313 153.515 40.3427L153.774 40.0599C153.917 39.9137 153.967 39.8629 154.029 39.8181C154.062 39.7942 154.099 39.772 154.155 39.7379L154.168 39.7411ZM165.177 51.3232C165.101 51.312 165.023 51.3044 164.877 51.2899L164.875 51.2831C164.77 51.4132 164.663 51.5444 164.556 51.6745C164.419 51.8389 164.281 52.0033 164.145 52.1678C164.112 52.2076 164.08 52.2463 164.048 52.2847C164.03 52.3058 164.013 52.3268 163.995 52.3478C163.711 52.6904 163.449 53.0251 163.241 53.3853C163.21 53.4454 163.181 53.5048 163.152 53.564L163.117 53.6348H162.797L162.636 54.1242H162.317C161.646 55.3084 159.79 56.4065 158.322 57.256C157.712 57.5604 157.193 57.8471 156.723 58.2347L157.682 58.039V57.8432C157.83 57.8432 157.94 57.8432 158.048 57.8343C158.365 57.8083 158.665 57.706 159.841 57.3049C160.08 57.2227 160.32 57.141 160.56 57.0603C162.652 56.4632 164.181 55.602 165.195 54.3297C165.367 54.1055 165.546 53.902 165.766 53.6936C165.791 53.6711 165.814 53.6486 165.839 53.6264C166.147 53.3411 166.435 53.0737 166.546 52.7315C166.56 52.3791 166.508 52.063 166.155 51.7792L165.675 51.6814C165.634 51.607 165.615 51.57 165.594 51.5331C165.574 51.4966 165.555 51.4602 165.515 51.3877C165.343 51.3524 165.261 51.3356 165.177 51.3232Z" fill="white"/>
</g>
<defs>
<linearGradient id="paint0_linear_101_36" x1="150.833" y1="-1.06692e-05" x2="150.833" y2="116.576" gradientUnits="userSpaceOnUse">
<stop stop-color="white"/>
<stop offset="0.76" stop-color="white" stop-opacity="0"/>
</linearGradient>
<clipPath id="clip0_101_36">
<rect width="301.667" height="165" fill="white"/>
</clipPath>
</defs>
</svg>
